<?xml version="1.0" encoding="UTF-8"?>
<svg xmlns="http://www.w3.org/2000/svg" viewBox="0 0 128 128">

    <g>
      <ellipse cx="64" cy="64" rx="36.0" ry="16.0" fill="#90A4AE"/>
      <circle cx="46.0" cy="54.0" r="22.0" fill="#90A4AE"/>
      <circle cx="70.0" cy="50.0" r="18.0" fill="#90A4AE"/>
      <circle cx="84.0" cy="62.0" r="26.0" fill="#90A4AE"/>
      <!-- subtle bottom shadow -->
      <ellipse cx="64" cy="72.0" rx="36.0" ry="11.2" fill="#78909C" opacity="0.25"/>
    </g>
    
    <g>
      <line x1="44" y1="98" x2="53.0" y2="98.0" stroke="#CFD8DC" stroke-width="3" stroke-linecap="round"/>
<line x1="44" y1="98" x2="48.5" y2="105.8" stroke="#CFD8DC" stroke-width="3" stroke-linecap="round"/>
<line x1="44" y1="98" x2="39.5" y2="105.8" stroke="#CFD8DC" stroke-width="3" stroke-linecap="round"/>
<line x1="44" y1="98" x2="35.0" y2="98.0" stroke="#CFD8DC" stroke-width="3" stroke-linecap="round"/>
<line x1="44" y1="98" x2="39.5" y2="90.2" stroke="#CFD8DC" stroke-width="3" stroke-linecap="round"/>
<line x1="44" y1="98" x2="48.5" y2="90.2" stroke="#CFD8DC" stroke-width="3" stroke-linecap="round"/>

      <circle cx="44" cy="98" r="3.6" fill="#ECEFF1" stroke="#CFD8DC" stroke-width="2"/>
    </g>
    
    <g>
      <line x1="64" y1="110" x2="73.0" y2="110.0" stroke="#CFD8DC" stroke-width="3" stroke-linecap="round"/>
<line x1="64" y1="110" x2="68.5" y2="117.8" stroke="#CFD8DC" stroke-width="3" stroke-linecap="round"/>
<line x1="64" y1="110" x2="59.5" y2="117.8" stroke="#CFD8DC" stroke-width="3" stroke-linecap="round"/>
<line x1="64" y1="110" x2="55.0" y2="110.0" stroke="#CFD8DC" stroke-width="3" stroke-linecap="round"/>
<line x1="64" y1="110" x2="59.5" y2="102.2" stroke="#CFD8DC" stroke-width="3" stroke-linecap="round"/>
<line x1="64" y1="110" x2="68.5" y2="102.2" stroke="#CFD8DC" stroke-width="3" stroke-linecap="round"/>

      <circle cx="64" cy="110" r="3.6" fill="#ECEFF1" stroke="#CFD8DC" stroke-width="2"/>
    </g>
    
    <g>
      <line x1="84" y1="98" x2="93.0" y2="98.0" stroke="#CFD8DC" stroke-width="3" stroke-linecap="round"/>
<line x1="84" y1="98" x2="88.5" y2="105.8" stroke="#CFD8DC" stroke-width="3" stroke-linecap="round"/>
<line x1="84" y1="98" x2="79.5" y2="105.8" stroke="#CFD8DC" stroke-width="3" stroke-linecap="round"/>
<line x1="84" y1="98" x2="75.0" y2="98.0" stroke="#CFD8DC" stroke-width="3" stroke-linecap="round"/>
<line x1="84" y1="98" x2="79.5" y2="90.2" stroke="#CFD8DC" stroke-width="3" stroke-linecap="round"/>
<line x1="84" y1="98" x2="88.5" y2="90.2" stroke="#CFD8DC" stroke-width="3" stroke-linecap="round"/>

      <circle cx="84" cy="98" r="3.6" fill="#ECEFF1" stroke="#CFD8DC" stroke-width="2"/>
    </g>
    
</svg>