<?xml version="1.0" encoding="UTF-8"?>
<svg xmlns="http://www.w3.org/2000/svg" viewBox="0 0 128 128">

    <g>
      <ellipse cx="64" cy="64" rx="36.0" ry="16.0" fill="#90A4AE"/>
      <circle cx="46.0" cy="54.0" r="22.0" fill="#90A4AE"/>
      <circle cx="70.0" cy="50.0" r="18.0" fill="#90A4AE"/>
      <circle cx="84.0" cy="62.0" r="26.0" fill="#90A4AE"/>
      <!-- subtle bottom shadow -->
      <ellipse cx="64" cy="72.0" rx="36.0" ry="11.2" fill="#78909C" opacity="0.25"/>
    </g>
    
    <g>
      <line x1="48" y1="104" x2="57.0" y2="104.0" stroke="#CFD8DC" stroke-width="3" stroke-linecap="round"/>
<line x1="48" y1="104" x2="52.5" y2="111.8" stroke="#CFD8DC" stroke-width="3" stroke-linecap="round"/>
<line x1="48" y1="104" x2="43.5" y2="111.8" stroke="#CFD8DC" stroke-width="3" stroke-linecap="round"/>
<line x1="48" y1="104" x2="39.0" y2="104.0" stroke="#CFD8DC" stroke-width="3" stroke-linecap="round"/>
<line x1="48" y1="104" x2="43.5" y2="96.2" stroke="#CFD8DC" stroke-width="3" stroke-linecap="round"/>
<line x1="48" y1="104" x2="52.5" y2="96.2" stroke="#CFD8DC" stroke-width="3" stroke-linecap="round"/>

      <circle cx="48" cy="104" r="3.6" fill="#ECEFF1" stroke="#CFD8DC" stroke-width="2"/>
    </g>
    
    <g>
      <line x1="80" y1="104" x2="89.0" y2="104.0" stroke="#CFD8DC" stroke-width="3" stroke-linecap="round"/>
<line x1="80" y1="104" x2="84.5" y2="111.8" stroke="#CFD8DC" stroke-width="3" stroke-linecap="round"/>
<line x1="80" y1="104" x2="75.5" y2="111.8" stroke="#CFD8DC" stroke-width="3" stroke-linecap="round"/>
<line x1="80" y1="104" x2="71.0" y2="104.0" stroke="#CFD8DC" stroke-width="3" stroke-linecap="round"/>
<line x1="80" y1="104" x2="75.5" y2="96.2" stroke="#CFD8DC" stroke-width="3" stroke-linecap="round"/>
<line x1="80" y1="104" x2="84.5" y2="96.2" stroke="#CFD8DC" stroke-width="3" stroke-linecap="round"/>

      <circle cx="80" cy="104" r="3.6" fill="#ECEFF1" stroke="#CFD8DC" stroke-width="2"/>
    </g>
    
</svg>